<svg xmlns="http://www.w3.org/2000/svg" width="18.423" height="16.845" viewBox="0 0 18.423 16.845"><defs><style>.a{fill:#38c1c8;}</style></defs><g transform="translate(0 -21.924)"><g transform="translate(0 21.924)"><path class="a" d="M14.785,31.494a3.622,3.622,0,0,0-1.039.15,5.408,5.408,0,0,0-.714-1.32,3.776,3.776,0,0,0,.866-1.911H15.64a.54.54,0,0,0,0-1.079H13.9a3.747,3.747,0,0,0-.575-1.521l1.425-1.425a.54.54,0,0,0-.763-.763L12.608,25a3.757,3.757,0,0,0-1.9-.861V22.464a.54.54,0,0,0-1.079,0v1.677a3.757,3.757,0,0,0-1.92.877L6.313,23.623a.54.54,0,0,0-.763.763L7,25.834a3.749,3.749,0,0,0-.6,2.039,3.79,3.79,0,0,0,.066.7,5.435,5.435,0,0,0-3.1,3.727l-.132,0a3.234,3.234,0,1,0,0,6.468H14.785a3.637,3.637,0,0,0,0-7.275Zm-4.618-6.313A2.69,2.69,0,0,1,12.3,29.514a5.438,5.438,0,0,0-4.8-1.275,2.724,2.724,0,0,1-.025-.366A2.694,2.694,0,0,1,10.167,25.181Zm4.618,12.508H3.234a2.155,2.155,0,1,1,.453-4.262.54.54,0,0,0,.641-.415c0-.009,0-.019,0-.028a.541.541,0,0,0,.015-.067,4.356,4.356,0,0,1,7.537-2.293l.02.025.023.024a4.335,4.335,0,0,1,.934,1.751.538.538,0,0,0,.777.419,2.531,2.531,0,0,1,1.145-.27,2.558,2.558,0,0,1,0,5.116Z" transform="translate(0 -21.924)"/></g></g></svg>