<svg xmlns="http://www.w3.org/2000/svg" width="20.489" height="11.85" viewBox="0 0 20.489 11.85"><defs><style>.a{fill:#94a5a6;}</style></defs><g transform="translate(0 -3.309)"><g transform="translate(0 3.309)"><path class="a" d="M16.443,114.849a4.028,4.028,0,0,0-1.155.167,6.044,6.044,0,0,0-11.544.733c-.049,0-.1,0-.147,0a3.6,3.6,0,0,0,0,7.194H16.443a4.045,4.045,0,0,0,0-8.091Zm0,6.89H3.6A2.4,2.4,0,1,1,4.1,117a.6.6,0,0,0,.713-.461c0-.011,0-.021.005-.032a.6.6,0,0,0,.016-.074,4.843,4.843,0,0,1,9.47-.548.6.6,0,0,0,.865.466,2.815,2.815,0,0,1,1.274-.3,2.845,2.845,0,0,1,0,5.69Z" transform="translate(0 -111.09)"/></g></g></svg>