<?xml version="1.0" encoding="utf-8"?>
<!-- Generator: Adobe Illustrator 15.0.0, SVG Export Plug-In . SVG Version: 6.00 Build 0)  -->
<!DOCTYPE svg PUBLIC "-//W3C//DTD SVG 1.1//EN" "http://www.w3.org/Graphics/SVG/1.1/DTD/svg11.dtd">
<svg version="1.1" id="Layer_1" xmlns="http://www.w3.org/2000/svg" xmlns:xlink="http://www.w3.org/1999/xlink" x="0px" y="0px"
	 width="20.488px" height="11.85px" viewBox="0 0 20.488 11.85" enable-background="new 0 0 20.488 11.85" xml:space="preserve">
<g transform="translate(0 -3.309)">
	<g transform="translate(0 3.309)">
		<path fill="#38c1c8" d="M16.443,3.759c-0.391-0.001-0.779,0.056-1.154,0.167c-1.17-3.126-4.652-4.713-7.779-3.543
			C5.619,1.09,4.206,2.695,3.744,4.659c-0.05,0-0.101,0-0.147,0C1.611,4.74,0.066,6.416,0.147,8.403
			c0.077,1.873,1.577,3.374,3.45,3.45h12.846c2.234,0,4.046-1.811,4.046-4.045s-1.812-4.046-4.046-4.046V3.759z M16.443,10.649H3.6
			c-1.325,0.021-2.416-1.037-2.437-2.363C1.144,6.96,2.201,5.869,3.527,5.85C3.72,5.847,3.912,5.867,4.1,5.91
			C4.424,5.98,4.743,5.774,4.813,5.449l0,0c0-0.012,0-0.021,0.005-0.032C4.824,5.393,4.83,5.368,4.834,5.343
			c0.389-2.646,2.849-4.477,5.495-4.088c1.913,0.281,3.475,1.673,3.975,3.54c0.039,0.329,0.337,0.564,0.666,0.525
			c0.069-0.008,0.137-0.028,0.199-0.06c0.395-0.198,0.831-0.302,1.273-0.3c1.571,0,2.846,1.273,2.846,2.845
			s-1.274,2.845-2.846,2.845V10.649z"/>
	</g>
</g>
</svg>
