<?xml version="1.0" encoding="utf-8"?>
<!-- Generator: Adobe Illustrator 15.0.0, SVG Export Plug-In . SVG Version: 6.00 Build 0)  -->
<!DOCTYPE svg PUBLIC "-//W3C//DTD SVG 1.1//EN" "http://www.w3.org/Graphics/SVG/1.1/DTD/svg11.dtd">
<svg version="1.1" id="Layer_1" xmlns="http://www.w3.org/2000/svg" xmlns:xlink="http://www.w3.org/1999/xlink" x="0px" y="0px"
	 width="18.422px" height="16.844px" viewBox="0 0 18.422 16.844" enable-background="new 0 0 18.422 16.844" xml:space="preserve">
<g transform="translate(0 -21.924)">
	<g transform="translate(0 21.924)">
		<path fill="#94A5A6" d="M14.786,9.57c-0.353-0.002-0.703,0.05-1.039,0.148C13.57,9.248,13.331,8.804,13.032,8.4
			c0.464-0.542,0.764-1.205,0.866-1.911h1.742c0.297-0.013,0.527-0.265,0.517-0.563c-0.013-0.28-0.236-0.504-0.517-0.516H13.9
			c-0.078-0.543-0.274-1.063-0.575-1.521l1.426-1.425c0.201-0.219,0.188-0.561-0.033-0.763c-0.206-0.19-0.522-0.19-0.729,0
			l-1.379,1.375c-0.539-0.461-1.198-0.759-1.9-0.861V0.54c-0.012-0.298-0.264-0.529-0.563-0.516C9.866,0.036,9.641,0.26,9.629,0.54
			v1.677c-0.71,0.103-1.377,0.407-1.92,0.877L6.313,1.699C6.093,1.497,5.752,1.512,5.55,1.731c-0.19,0.207-0.19,0.524,0,0.731
			L7,3.91C6.607,4.518,6.399,5.226,6.4,5.949c0,0.234,0.022,0.469,0.066,0.7c-1.561,0.687-2.708,2.067-3.1,3.727H3.234
			c-1.786,0-3.235,1.446-3.236,3.231c-0.001,1.787,1.446,3.234,3.231,3.236c0.001,0,0.003,0,0.004,0h11.552
			c2.008,0,3.637-1.629,3.637-3.638S16.793,9.568,14.786,9.57L14.786,9.57z M10.167,3.257c1.485-0.001,2.69,1.201,2.692,2.687
			c0.002,0.596-0.195,1.174-0.561,1.646c-1.3-1.173-3.087-1.648-4.799-1.275C7.483,6.194,7.475,6.071,7.475,5.949
			C7.476,4.463,8.681,3.258,10.167,3.257z M14.786,15.766H3.234c-1.19-0.002-2.155-0.967-2.154-2.156
			c0-1.19,0.966-2.154,2.156-2.153c0.152,0,0.303,0.017,0.452,0.047c0.292,0.063,0.579-0.123,0.641-0.414c0-0.01,0-0.021,0-0.028
			c0.006-0.021,0.011-0.043,0.015-0.066c0.35-2.38,2.563-4.026,4.943-3.677c0.999,0.146,1.916,0.636,2.594,1.384l0.02,0.024
			l0.021,0.024c0.443,0.503,0.764,1.103,0.936,1.751c0.033,0.295,0.301,0.506,0.596,0.473c0.063-0.008,0.124-0.024,0.181-0.055
			c0.354-0.178,0.748-0.271,1.146-0.27c1.414,0,2.559,1.146,2.559,2.559c0,1.412-1.145,2.559-2.559,2.559H14.786z"/>
	</g>
</g>
</svg>
