<svg xmlns="http://www.w3.org/2000/svg" width="16.54" height="15.526" viewBox="0 0 16.54 15.526"><defs><style>.a{fill:#94a5a6;stroke:#94a5a6;stroke-width:0.5px;}</style></defs><g transform="translate(0.273 -11.906)"><g transform="translate(6.839 14.517)"><g transform="translate(0 0)"><path class="a" d="M166.252,70.894a.371.371,0,0,0-.257-.08h-1.4l1.321-1.475.124-.137.064-.08a.444.444,0,0,0,.053-.1.334.334,0,0,0,.023-.12.251.251,0,0,0-.124-.241.746.746,0,0,0-.351-.067h-1.642a.361.361,0,0,0-.244.074.247.247,0,0,0-.087.2q0,.171.114.207a1.074,1.074,0,0,0,.334.04h1.07q-.067.094-.174.221l-.274.308-.371.4-.431.478q-.224.251-.294.334a.314.314,0,0,0,.03.431.455.455,0,0,0,.308.09h1.953a.381.381,0,0,0,.261-.077.254.254,0,0,0,.087-.2A.267.267,0,0,0,166.252,70.894Z" transform="translate(-163.629 -68.592)"/></g></g><g transform="translate(10.346 16.674)"><path class="a" d="M249.592,122.05a.294.294,0,0,0-.207-.064h-1.124l1.053-1.177.1-.11.064-.077a.35.35,0,0,0,.043-.08.268.268,0,0,0,.02-.1.2.2,0,0,0-.1-.194.6.6,0,0,0-.281-.053H247.84a.291.291,0,0,0-.194.06.2.2,0,0,0-.07.157q0,.134.09.167a.854.854,0,0,0,.267.03h.856a1.973,1.973,0,0,1-.14.177l-.221.247-.288.334-.334.381q-.181.2-.237.274a.251.251,0,0,0,.023.334.361.361,0,0,0,.244.07h1.552a.3.3,0,0,0,.207-.06.2.2,0,0,0,.067-.157A.214.214,0,0,0,249.592,122.05Z" transform="translate(-247.516 -120.197)"/></g><g transform="translate(13.303 14.33)"><g transform="translate(0 0)"><path class="a" d="M320.9,66.431a.371.371,0,0,0-.257-.08h-1.414l1.321-1.475.124-.137.08-.1a.444.444,0,0,0,.054-.1.336.336,0,0,0,.023-.12.251.251,0,0,0-.124-.241.746.746,0,0,0-.351-.067h-1.659a.361.361,0,0,0-.244.074.247.247,0,0,0-.087.2q0,.171.114.207a1.073,1.073,0,0,0,.334.04h1.07q-.067.094-.174.221l-.278.314-.361.4-.431.478q-.224.251-.294.334a.314.314,0,0,0,.03.431.455.455,0,0,0,.308.09h1.949a.381.381,0,0,0,.267-.067.254.254,0,0,0,.087-.2A.267.267,0,0,0,320.9,66.431Z" transform="translate(-318.269 -64.112)"/></g></g><g transform="translate(0 12.158)"><g transform="translate(0 0)"><path class="a" d="M14.776,22.279a.334.334,0,0,0-.368-.077,7.1,7.1,0,0,1-9.152-9.567.334.334,0,0,0-.431-.451A7.778,7.778,0,1,0,14.836,22.65.334.334,0,0,0,14.776,22.279ZM7.784,26.492A7.112,7.112,0,0,1,4.323,13.167a7.667,7.667,0,0,0-.4,2.458,7.781,7.781,0,0,0,9.911,7.483A7.139,7.139,0,0,1,7.784,26.492Z" transform="translate(0 -12.158)"/></g></g></g></svg>