<?xml version="1.0" encoding="utf-8"?>
<!-- Generator: Adobe Illustrator 15.0.0, SVG Export Plug-In . SVG Version: 6.00 Build 0)  -->
<!DOCTYPE svg PUBLIC "-//W3C//DTD SVG 1.1//EN" "http://www.w3.org/Graphics/SVG/1.1/DTD/svg11.dtd">
<svg version="1.1" id="Layer_1" xmlns="http://www.w3.org/2000/svg" xmlns:xlink="http://www.w3.org/1999/xlink" x="0px" y="0px"
	 width="16.54px" height="15.525px" viewBox="0 0 16.54 15.525" enable-background="new 0 0 16.54 15.525" xml:space="preserve">
<g transform="translate(0.273 -11.906)">
	<g transform="translate(6.839 14.517)">
		<g transform="translate(0 0)">
			<path fill="#38c1c8" d="M2.623,2.302c-0.072-0.059-0.164-0.087-0.257-0.08h-1.4l1.321-1.476L2.411,0.61l0.063-0.08
				c0.022-0.03,0.04-0.064,0.054-0.1c0.015-0.038,0.022-0.079,0.022-0.12c0.01-0.098-0.039-0.191-0.123-0.241
				c-0.11-0.051-0.23-0.073-0.352-0.066H0.434C0.346-0.003,0.26,0.022,0.19,0.076c-0.058,0.05-0.09,0.124-0.087,0.2
				c0,0.114,0.038,0.183,0.114,0.207c0.108,0.031,0.221,0.044,0.334,0.04h1.07C1.576,0.586,1.518,0.66,1.447,0.744L1.173,1.052
				L0.802,1.452L0.371,1.93C0.221,2.097,0.124,2.209,0.077,2.264c-0.106,0.129-0.093,0.318,0.03,0.431
				c0.088,0.066,0.198,0.099,0.308,0.09h1.953c0.093,0.008,0.187-0.02,0.261-0.077c0.059-0.05,0.09-0.123,0.088-0.199
				C2.717,2.429,2.683,2.353,2.623,2.302z"/>
		</g>
	</g>
	<g transform="translate(10.346 16.674)">
		<path fill="#38c1c8" d="M2.076,1.853c-0.058-0.047-0.132-0.07-0.207-0.064H0.745l1.053-1.177l0.101-0.11l0.063-0.077
			C1.979,0.4,1.995,0.374,2.005,0.346c0.014-0.032,0.02-0.066,0.021-0.101c0.008-0.079-0.031-0.154-0.101-0.194
			c-0.088-0.04-0.184-0.058-0.28-0.053h-1.32C0.255-0.006,0.185,0.015,0.13,0.058C0.085,0.097,0.059,0.155,0.06,0.215
			c0,0.09,0.03,0.146,0.09,0.167c0.087,0.024,0.177,0.034,0.267,0.03h0.856c-0.044,0.062-0.091,0.121-0.14,0.177L0.912,0.836
			L0.624,1.17L0.29,1.551C0.169,1.684,0.09,1.776,0.053,1.825C-0.026,1.926-0.015,2.07,0.076,2.159
			c0.07,0.052,0.157,0.077,0.244,0.07h1.552C1.946,2.235,2.02,2.214,2.079,2.169C2.124,2.13,2.148,2.072,2.146,2.013
			C2.146,1.952,2.121,1.893,2.076,1.853z"/>
	</g>
	<g transform="translate(13.303 14.33)">
		<g transform="translate(0 0)">
			<path fill="#38c1c8" d="M2.632,2.319c-0.073-0.059-0.165-0.087-0.258-0.08H0.96l1.321-1.476l0.124-0.137l0.08-0.1
				c0.021-0.031,0.041-0.064,0.054-0.101c0.015-0.038,0.022-0.079,0.023-0.12c0.009-0.098-0.04-0.191-0.124-0.24
				c-0.109-0.051-0.23-0.074-0.352-0.067H0.428C0.34-0.007,0.254,0.02,0.184,0.073c-0.059,0.049-0.091,0.123-0.088,0.2
				c0,0.113,0.039,0.183,0.115,0.206c0.107,0.031,0.221,0.045,0.334,0.04h1.069C1.571,0.583,1.512,0.656,1.441,0.741L1.163,1.055
				l-0.361,0.4L0.371,1.933C0.221,2.101,0.124,2.212,0.077,2.267c-0.105,0.129-0.093,0.318,0.03,0.432
				c0.089,0.066,0.198,0.098,0.308,0.09h1.949C2.458,2.8,2.553,2.775,2.632,2.721c0.057-0.05,0.089-0.123,0.086-0.2
				C2.719,2.444,2.688,2.371,2.632,2.319z"/>
		</g>
	</g>
	<g transform="translate(0 12.158)">
		<g transform="translate(0 0)">
			<path fill="#38c1c8" d="M14.776,10.121c-0.096-0.099-0.242-0.13-0.368-0.077c-3.622,1.503-7.776-0.215-9.279-3.837
				C4.364,4.364,4.41,2.284,5.256,0.477c0.079-0.166,0.008-0.365-0.159-0.444C5.011-0.009,4.913-0.011,4.825,0.026
				C0.851,1.657-1.047,6.201,0.584,10.175c1.632,3.974,6.176,5.873,10.149,4.241c1.813-0.744,3.278-2.146,4.103-3.924
				C14.893,10.367,14.87,10.221,14.776,10.121z M7.784,14.334c-3.928,0-7.112-3.185-7.112-7.112c0-2.58,1.397-4.957,3.651-6.213
				c-0.267,0.792-0.402,1.622-0.4,2.458c0,4.297,3.485,7.78,7.782,7.78c0.72,0,1.437-0.101,2.129-0.297
				C12.537,13.047,10.25,14.326,7.784,14.334z"/>
		</g>
	</g>
</g>
</svg>
