<svg xmlns="http://www.w3.org/2000/svg" width="14.201" height="14.201" viewBox="0 0 14.201 14.201"><defs><style>.a{fill:#94a5a6;}</style></defs><g transform="translate(0 6.637)"><path class="a" d="M1.389,239.3H.463a.463.463,0,0,0,0,.926h.926a.463.463,0,0,0,0-.926Z" transform="translate(0 -239.304)"/></g><g transform="translate(12.349 6.637)"><path class="a" d="M446.606,239.3h-.926a.463.463,0,0,0,0,.926h.926a.463.463,0,0,0,0-.926Z" transform="translate(-445.217 -239.304)"/></g><g transform="translate(6.637 12.349)"><path class="a" d="M239.767,445.217a.463.463,0,0,0-.463.463v.926a.463.463,0,0,0,.926,0v-.926A.463.463,0,0,0,239.767,445.217Z" transform="translate(-239.304 -445.217)"/></g><g transform="translate(6.637)"><path class="a" d="M239.767,0a.463.463,0,0,0-.463.463v.926a.463.463,0,0,0,.926,0V.463A.463.463,0,0,0,239.767,0Z" transform="translate(-239.304 0)"/></g><g transform="translate(9.493 11.583)"><path class="a" d="M343.586,418.661l-.463-.8a.463.463,0,1,0-.8.463l.463.8a.463.463,0,0,0,.8-.463Z" transform="translate(-342.259 -417.627)"/></g><g transform="translate(3.319 0.889)"><path class="a" d="M120.977,33.092l-.463-.8a.463.463,0,1,0-.8.463l.463.8a.463.463,0,0,0,.8-.463Z" transform="translate(-119.65 -32.058)"/></g><g transform="translate(11.584 9.493)"><path class="a" d="M419.125,342.783l-.8-.463a.463.463,0,1,0-.463.8l.8.463a.463.463,0,0,0,.463-.8Z" transform="translate(-417.629 -342.258)"/></g><g transform="translate(0.889 3.319)"><path class="a" d="M33.556,120.174l-.8-.463a.463.463,0,1,0-.463.8l.8.463a.463.463,0,0,0,.463-.8Z" transform="translate(-32.06 -119.649)"/></g><g transform="translate(11.584 3.319)"><path class="a" d="M419.295,119.881a.463.463,0,0,0-.633-.169l-.8.463a.463.463,0,0,0,.463.8l.8-.463A.463.463,0,0,0,419.295,119.881Z" transform="translate(-417.629 -119.649)"/></g><g transform="translate(0.889 9.493)"><path class="a" d="M33.725,342.49a.463.463,0,0,0-.633-.169l-.8.463a.463.463,0,0,0,.463.8l.8-.463A.463.463,0,0,0,33.725,342.49Z" transform="translate(-32.059 -342.259)"/></g><g transform="translate(9.493 0.889)"><path class="a" d="M343.416,32.12a.463.463,0,0,0-.633.169l-.463.8a.463.463,0,1,0,.8.463l.463-.8A.463.463,0,0,0,343.416,32.12Z" transform="translate(-342.259 -32.058)"/></g><g transform="translate(3.319 11.583)"><path class="a" d="M120.807,417.69a.463.463,0,0,0-.633.17l-.463.8a.463.463,0,0,0,.8.463l.463-.8A.463.463,0,0,0,120.807,417.69Z" transform="translate(-119.65 -417.628)"/></g><g transform="translate(2.778 2.778)"><path class="a" d="M104.5,100.174a4.322,4.322,0,1,0,4.322,4.322A4.327,4.327,0,0,0,104.5,100.174Zm0,7.718a3.4,3.4,0,1,1,3.4-3.4A3.4,3.4,0,0,1,104.5,107.892Z" transform="translate(-100.174 -100.174)"/></g><g transform="translate(4.631 4.631)"><path class="a" d="M169.427,166.957a2.473,2.473,0,0,0-2.47,2.47.463.463,0,1,0,.926,0,1.545,1.545,0,0,1,1.544-1.544.463.463,0,1,0,0-.926Z" transform="translate(-166.957 -166.957)"/></g></svg>