<?xml version="1.0" encoding="utf-8"?>
<!-- Generator: Adobe Illustrator 15.0.0, SVG Export Plug-In . SVG Version: 6.00 Build 0)  -->
<!DOCTYPE svg PUBLIC "-//W3C//DTD SVG 1.1//EN" "http://www.w3.org/Graphics/SVG/1.1/DTD/svg11.dtd">
<svg version="1.1" id="Layer_1" xmlns="http://www.w3.org/2000/svg" xmlns:xlink="http://www.w3.org/1999/xlink" x="0px" y="0px"
	 width="14.201px" height="14.201px" viewBox="0 0 14.201 14.201" enable-background="new 0 0 14.201 14.201" xml:space="preserve">
<g transform="translate(0 6.637)">
	<path fill="#38c1c8" d="M1.389-0.004H0.463C0.208-0.003,0,0.205,0.001,0.461c0.001,0.254,0.207,0.46,0.461,0.461h0.926
		c0.255-0.001,0.462-0.209,0.461-0.464C1.85,0.203,1.644-0.003,1.389-0.004z"/>
</g>
<g transform="translate(12.349 6.637)">
	<path fill="#38c1c8" d="M1.388-0.004H0.463C0.207-0.003,0.001,0.205,0.002,0.461c0.001,0.254,0.207,0.46,0.461,0.461h0.926
		C1.644,0.921,1.851,0.713,1.85,0.458C1.849,0.203,1.644-0.003,1.388-0.004z"/>
</g>
<g transform="translate(6.637 12.349)">
	<path fill="#38c1c8" d="M0.463,0C0.207,0,0,0.207,0,0.463l0,0v0.926c0,0.256,0.208,0.463,0.464,0.462
		c0.254-0.001,0.46-0.206,0.461-0.462V0.463C0.926,0.207,0.718,0,0.463,0L0.463,0z"/>
</g>
<g transform="translate(6.637)">
	<path fill="#38c1c8" d="M0.463,0C0.207,0,0,0.207,0,0.463v0.926c0,0.255,0.208,0.462,0.464,0.461
		c0.254-0.001,0.46-0.207,0.461-0.461V0.463C0.926,0.207,0.718,0,0.463,0z"/>
</g>
<g transform="translate(9.493 11.583)">
	<path fill="#38c1c8" d="M1.326,1.034l-0.463-0.8C0.75,0.006,0.471-0.087,0.242,0.027C0.014,0.143-0.078,0.42,0.036,0.648
		c0.009,0.018,0.018,0.033,0.028,0.049l0.463,0.8c0.141,0.214,0.428,0.271,0.641,0.13C1.363,1.498,1.432,1.243,1.326,1.034z"/>
</g>
<g transform="translate(3.319 0.889)">
	<path fill="#38c1c8" d="M1.327,1.034l-0.463-0.8C0.749,0.006,0.471-0.087,0.243,0.028S-0.078,0.42,0.036,0.649
		c0.008,0.017,0.018,0.033,0.028,0.048l0.463,0.8C0.668,1.71,0.955,1.769,1.169,1.628C1.364,1.498,1.432,1.243,1.327,1.034z"/>
</g>
<g transform="translate(11.584 9.493)">
	<path fill="#38c1c8" d="M1.496,0.526l-0.8-0.464C0.483-0.08,0.195-0.021,0.054,0.193c-0.141,0.213-0.082,0.5,0.131,0.642
		c0.016,0.01,0.031,0.02,0.049,0.027l0.8,0.463C1.262,1.44,1.54,1.347,1.654,1.118C1.759,0.908,1.691,0.654,1.496,0.526z"/>
</g>
<g transform="translate(0.889 3.319)">
	<path fill="#38c1c8" d="M1.496,0.525l-0.8-0.463c-0.213-0.141-0.5-0.083-0.642,0.13c-0.141,0.213-0.083,0.5,0.13,0.642
		c0.016,0.01,0.032,0.02,0.048,0.028l0.8,0.463C1.261,1.439,1.54,1.347,1.654,1.119C1.759,0.909,1.691,0.654,1.496,0.525z"/>
</g>
<g transform="translate(11.584 3.319)">
	<path fill="#38c1c8" d="M1.666,0.232C1.538,0.011,1.255-0.065,1.034,0.063c-0.001,0-0.001,0-0.001,0l-0.8,0.463
		C0.021,0.667-0.038,0.954,0.103,1.167c0.129,0.195,0.385,0.264,0.594,0.159l0.8-0.463C1.717,0.735,1.793,0.453,1.666,0.232z"/>
</g>
<g transform="translate(0.889 9.493)">
	<path fill="#38c1c8" d="M1.666,0.231C1.538,0.01,1.255-0.066,1.033,0.062c0,0,0,0,0,0.001l-0.8,0.463
		C0.02,0.666-0.038,0.953,0.103,1.166C0.232,1.362,0.486,1.43,0.696,1.324l0.8-0.463C1.717,0.735,1.793,0.452,1.666,0.231z"/>
</g>
<g transform="translate(9.493 0.889)">
	<path fill="#38c1c8" d="M1.156,0.062C0.936-0.066,0.652,0.009,0.524,0.231c0,0,0,0,0,0l-0.463,0.8
		c-0.141,0.213-0.082,0.5,0.131,0.642c0.213,0.142,0.5,0.083,0.642-0.13c0.011-0.016,0.02-0.032,0.028-0.049l0.463-0.8
		C1.451,0.473,1.377,0.191,1.156,0.062z"/>
</g>
<g transform="translate(3.319 11.583)">
	<path fill="#38c1c8" d="M1.157,0.063C0.935-0.066,0.652,0.01,0.524,0.231c0,0,0,0.001,0,0.001l-0.463,0.8
		c-0.114,0.229-0.022,0.507,0.207,0.621C0.477,1.758,0.732,1.69,0.861,1.495l0.463-0.8C1.452,0.475,1.378,0.191,1.157,0.063z"/>
</g>
<g transform="translate(2.778 2.778)">
	<path fill="#38c1c8" d="M4.326,0C1.939,0,0.004,1.935,0.004,4.322s1.935,4.322,4.322,4.322s4.322-1.935,4.322-4.322l0,0
		C8.645,1.936,6.711,0.003,4.326,0z M4.326,7.718c-1.878,0-3.4-1.522-3.4-3.4c0-1.878,1.522-3.4,3.4-3.4c1.877,0,3.4,1.522,3.4,3.4
		C7.726,6.196,6.203,7.718,4.326,7.718L4.326,7.718z"/>
</g>
<g transform="translate(4.631 4.631)">
	<path fill="#38c1c8" d="M2.47,0C1.106,0.002,0.002,1.106,0,2.47c0,0.255,0.206,0.463,0.461,0.464
		c0.256,0.001,0.464-0.206,0.465-0.461c0-0.001,0-0.002,0-0.003c0-0.853,0.691-1.543,1.544-1.544c0.256,0,0.463-0.206,0.464-0.461
		C2.935,0.209,2.729,0.001,2.473,0C2.472,0,2.471,0,2.47,0z"/>
</g>
</svg>
